HIERARCHY
ROOT root
{
	OFFSET	0	13.1	24.9
	CHANNELS 6  Xposition Yposition Zposition Xrotation Yrotation Zrotation
	JOINT spine_1
	{
		OFFSET	0	9.99999	0
		CHANNELS 3  Xrotation Yrotation Zrotation
		JOINT spine_2
		{
			OFFSET	0	112	-10
			CHANNELS 3  Xrotation Yrotation Zrotation
			JOINT spine_3
			{
				OFFSET	0	206.5	19.3
				CHANNELS 3  Xrotation Yrotation Zrotation
				JOINT spine_4
				{
					OFFSET	0	110.4	14.6
					CHANNELS 3  Xrotation Yrotation Zrotation
					JOINT neck_1
					{
						OFFSET	0	71.8	-50.3
						CHANNELS 3  Xrotation Yrotation Zrotation
						JOINT neck_2
						{
							OFFSET	0	86.2	-25.8
							CHANNELS 3  Xrotation Yrotation Zrotation
							JOINT head_ee
							{
								OFFSET	0	179.8	-8.7
								CHANNELS 3  Xrotation Yrotation Zrotation
								End Site
								{
									OFFSET	1	0	0
								}
							}
						}
					}
					JOINT left_clavicle
					{
						OFFSET	-43.2	22.4	-70.8
						CHANNELS 3  Xrotation Yrotation Zrotation
						JOINT left_shoulder
						{
							OFFSET	-93.9	-5.79999	48.7
							CHANNELS 3  Xrotation Yrotation Zrotation
							JOINT left_elbow
							{
								OFFSET	-291.4	-30.8	15.2
								CHANNELS 3  Xrotation Yrotation Zrotation
								JOINT left_lowarm_twist
								{
									OFFSET	-110.7	-3.89999	13.6
									CHANNELS 3  Xrotation Yrotation Zrotation
									JOINT left_hand
									{
										OFFSET	-110.7	-3.89999	13.6
										CHANNELS 3  Xrotation Yrotation Zrotation
										JOINT left_ee
										{
											OFFSET	-80.8	-5.10001	12.1
											CHANNELS 3  Xrotation Yrotation Zrotation
											End Site
											{
												OFFSET	1	0	0
											}
										}
									}
								}
							}
						}
					}
					JOINT right_clavicle
					{
						OFFSET	43.2	22.4	-70.8
						CHANNELS 3  Xrotation Yrotation Zrotation
						JOINT right_shoulder
						{
							OFFSET	93.9	-5.79999	48.7
							CHANNELS 3  Xrotation Yrotation Zrotation
							JOINT right_elbow
							{
								OFFSET	291.4	-30.8	15.2
								CHANNELS 3  Xrotation Yrotation Zrotation
								JOINT right_lowarm_twist
								{
									OFFSET	110.7	-3.89999	13.6
									CHANNELS 3  Xrotation Yrotation Zrotation
									JOINT right_hand
									{
										OFFSET	110.7	-3.89999	13.6
										CHANNELS 3  Xrotation Yrotation Zrotation
										JOINT right_ee
										{
											OFFSET	80.8	-5.10001	12.1
											CHANNELS 3  Xrotation Yrotation Zrotation
											End Site
											{
												OFFSET	1	0	0
											}
										}
									}
								}
							}
						}
					}
				}
			}
		}
	}
	JOINT left_hip
	{
		OFFSET	-82.8	-127.5	0.300001
		CHANNELS 3  Xrotation Yrotation Zrotation
		JOINT left_knee
		{
			OFFSET	-28.2	-396.7	2.2
			CHANNELS 3  Xrotation Yrotation Zrotation
			JOINT left_ankle
			{
				OFFSET	-11.7	-411.3	35.4
				CHANNELS 3  Xrotation Yrotation Zrotation
				JOINT left_toes
				{
					OFFSET	0	-60	-88.6
					CHANNELS 3  Xrotation Yrotation Zrotation
					JOINT left_foot_ee
					{
						OFFSET	-22.5	-16.5	-42.2
						CHANNELS 3  Xrotation Yrotation Zrotation
						End Site
						{
							OFFSET	1	0	0
						}
					}
				}
			}
		}
	}
	JOINT right_hip
	{
		OFFSET	82.8	-127.5	0.300001
		CHANNELS 3  Xrotation Yrotation Zrotation
		JOINT right_knee
		{
			OFFSET	28.2	-396.7	2.2
			CHANNELS 3  Xrotation Yrotation Zrotation
			JOINT right_ankle
			{
				OFFSET	11.7	-411.3	35.4
				CHANNELS 3  Xrotation Yrotation Zrotation
				JOINT right_toes
				{
					OFFSET	0	-60	-88.6
					CHANNELS 3  Xrotation Yrotation Zrotation
					JOINT right_foot_ee
					{
						OFFSET	22.5	-16.5	-42.2
						CHANNELS 3  Xrotation Yrotation Zrotation
						End Site
						{
							OFFSET	1	0	0
						}
					}
				}
			}
		}
	}
}
MOTION
Frames: 10
Frame Time: 0.02
1372.05 701.618 -1475.22 -20.3732453758 28.4442833168 2.72908870076 4.66428 0.61481 2.972 4.6691 0.424536 3.00505 4.68764 0.0318065 3.0347 4.67516 0.510464 2.99167 8.07409 11.3137 0.287058 8.58566 18.654 0.495931 -0.0 0.0 -0.0 2.87704 12.8464 6.28509 -10.2784 -47.5739 50.4583 1.99806 -44.7007 0.821587 -34.6209 -2.3981 3.64818 -1.29616 0.493187 -8.46745 -0.0 0.0 -0.0 12.2859 21.5367 -24.4737 -26.1228 -14.3934 -74.7114 0.359127 10.0876 -0.0316965 -55.8081 4.76651 -4.95167 4.71237 18.8114 -23.9166 0.0 0.0 0.0 13.5902 -7.76301 16.894 -17.5211 0.316911 2.65963 39.3967 25.8059 -5.13608 7.07569 -0.0 -0.0 -0.0 0.0 -0.0 49.2269 9.56597 3.65464 -11.8038 -0.303261 -1.78291 -9.93288 13.661 -1.60104 -5.49096 0.0 0.0 0.0 0.0 0.0 
1355.34353195 702.624 -1492.58606847 -20.738194038 27.9091211487 2.71399611381 4.86362 0.674798 2.91111 4.86821 0.488272 2.9481 4.88951 0.113002 2.98609 4.87754 0.582977 2.93086 8.75123 11.0652 -0.3457 9.30376 18.6918 -0.334133 -0.0 0.0 -0.0 2.29936 13.7667 5.37941 -11.2987 -47.4333 51.4792 2.11319 -46.3045 0.903714 -34.9473 -2.43054 3.67467 -1.30505 0.490763 -8.52847 -0.0 0.0 -0.0 12.0971 21.2852 -24.0598 -25.7506 -14.6648 -73.6244 0.364372 10.2319 -0.0326216 -55.8051 4.76615 -4.95155 4.73292 18.8651 -24.0337 0.0 0.0 0.0 13.8813 -7.63565 17.2533 -18.5195 0.310319 2.81268 38.8573 25.9946 -5.08922 7.04165 -0.0 -0.0 -0.0 0.0 -0.0 49.0157 8.73678 3.59496 -12.0076 -0.30525 -1.81411 -10.6052 13.9375 -1.71447 -5.63721 0.0 0.0 0.0 0.0 0.0 
1355.55371744 702.624 -1492.78584956 -20.6110023058 27.2640328956 2.43934115904 4.86362 0.674798 2.91111 4.86821 0.488272 2.9481 4.88951 0.113002 2.98609 4.87754 0.582977 2.93086 8.75123 11.0652 -0.3457 9.30376 18.6918 -0.334133 -0.0 0.0 -0.0 2.29936 13.7667 5.37941 -11.2987 -47.4333 51.4792 2.11319 -46.3045 0.903714 -34.9473 -2.43054 3.67467 -1.30505 0.490763 -8.52847 -0.0 0.0 -0.0 12.0971 21.2852 -24.0598 -25.7506 -14.6648 -73.6244 0.364372 10.2319 -0.0326216 -55.8051 4.76615 -4.95155 4.73292 18.8651 -24.0337 0.0 0.0 0.0 13.8813 -7.63565 17.2533 -18.5195 0.310319 2.81268 38.8573 25.9946 -5.08922 7.04165 -0.0 -0.0 -0.0 0.0 -0.0 49.0157 8.73678 3.59496 -12.0076 -0.30525 -1.81411 -10.6052 13.9375 -1.71447 -5.63721 0.0 0.0 0.0 0.0 0.0 
1355.72468823 702.624 -1492.94485838 -20.5116394362 26.7442464857 2.22050912556 4.86362 0.674798 2.91111 4.86821 0.488272 2.9481 4.88951 0.113002 2.98609 4.87754 0.582977 2.93086 8.75123 11.0652 -0.3457 9.30376 18.6918 -0.334133 -0.0 0.0 -0.0 2.29936 13.7667 5.37941 -11.2987 -47.4333 51.4792 2.11319 -46.3045 0.903714 -34.9473 -2.43054 3.67467 -1.30505 0.490763 -8.52847 -0.0 0.0 -0.0 12.0971 21.2852 -24.0598 -25.7506 -14.6648 -73.6244 0.364372 10.2319 -0.0326216 -55.8051 4.76615 -4.95155 4.73292 18.8651 -24.0337 0.0 0.0 0.0 13.8813 -7.63565 17.2533 -18.5195 0.310319 2.81268 38.8573 25.9946 -5.08922 7.04165 -0.0 -0.0 -0.0 0.0 -0.0 49.0157 8.73678 3.59496 -12.0076 -0.30525 -1.81411 -10.6052 13.9375 -1.71447 -5.63721 0.0 0.0 0.0 0.0 0.0 
1312.8191881 707.845 -1538.37885584 -22.142472682 24.7954279721 2.42174294788 5.41861 0.530981 2.67285 5.42252 0.359888 2.7012 5.43562 0.0425882 2.72471 5.42557 0.472215 2.68385 8.95542 10.0843 -2.08948 9.57303 18.6024 -2.47337 -0.0 0.0 -0.0 1.09514 15.7463 3.58308 -12.4651 -45.5023 56.5558 2.05284 -45.4753 0.860384 -35.4066 -2.47643 3.71162 -1.68196 3.49461 -9.69079 -0.0 0.0 -0.0 12.1174 19.5872 -24.2323 -24.7661 -14.7635 -72.896 0.392575 11.0052 -0.0378187 -56.5461 4.8566 -4.98073 4.35069 16.6414 -22.5208 0.0 0.0 0.0 14.1973 -7.35765 18.6661 -18.396 0.311279 2.79376 37.7035 26.4549 -4.98849 7.28877 -0.0 -0.0 -0.0 0.0 -0.0 48.1949 7.3754 4.0199 -12.9031 -0.312678 -1.9513 -7.38594 19.5313 -1.24441 -3.71178 0.0 0.0 0.0 0.0 0.0 
1313.83043099 707.845 -1539.3122143 -21.9874851643 23.9514992784 2.04619318573 5.41861 0.530981 2.67285 5.42252 0.359888 2.7012 5.43562 0.0425882 2.72471 5.42557 0.472215 2.68385 8.95542 10.0843 -2.08948 9.57303 18.6024 -2.47337 -0.0 0.0 -0.0 1.09514 15.7463 3.58308 -12.4651 -45.5023 56.5558 2.05284 -45.4753 0.860384 -35.4066 -2.47643 3.71162 -1.68196 3.49461 -9.69079 -0.0 0.0 -0.0 12.1174 19.5872 -24.2323 -24.7661 -14.7635 -72.896 0.392575 11.0052 -0.0378187 -56.5461 4.8566 -4.98073 4.35069 16.6414 -22.5208 0.0 0.0 0.0 14.1973 -7.35765 18.6661 -18.396 0.311279 2.79376 37.7035 26.4549 -4.98849 7.28877 -0.0 -0.0 -0.0 0.0 -0.0 48.1949 7.3754 4.0199 -12.9031 -0.312678 -1.9513 -7.38594 19.5313 -1.24441 -3.71178 0.0 0.0 0.0 0.0 0.0 
1269.73451755 717.554 -1592.1762063 -21.03227013 25.4778569555 2.02024030386 5.06194 0.268776 2.64487 5.06582 0.0999914 2.6566 5.06707 -0.227672 2.64872 5.05733 0.19335 2.65145 11.6648 9.85857 -2.95293 12.4188 18.6368 -3.86166 -0.0 0.0 -0.0 0.976269 18.1225 3.60392 -14.0096 -39.1587 60.2709 1.83359 -42.2449 0.708401 -36.2914 -2.56567 3.78179 -1.81875 2.50224 -11.0745 -0.0 0.0 -0.0 11.57 15.0957 -23.2146 -21.0203 -15.1819 -71.6277 0.724794 19.7503 -0.126174 -56.939 4.90471 -4.99573 3.12361 9.21878 -17.4306 0.0 0.0 0.0 15.5498 -5.67227 18.172 -22.8064 0.251761 3.46771 38.1237 25.7218 -5.0069 7.56665 -0.0 -0.0 -0.0 0.0 -0.0 44.6806 6.52036 5.11174 -17.2461 -0.318257 -2.61746 -0.791854 20.4412 -0.132596 -1.90497 0.0 0.0 0.0 0.0 0.0 
1272.68589319 717.554 -1594.69378967 -20.7962198689 24.1417030799 1.45773148745 5.06194 0.268776 2.64487 5.06582 0.0999914 2.6566 5.06707 -0.227672 2.64872 5.05733 0.19335 2.65145 11.6648 9.85857 -2.95293 12.4188 18.6368 -3.86166 -0.0 0.0 -0.0 0.976269 18.1225 3.60392 -14.0096 -39.1587 60.2709 1.83359 -42.2449 0.708401 -36.2914 -2.56567 3.78179 -1.81875 2.50224 -11.0745 -0.0 0.0 -0.0 11.57 15.0957 -23.2146 -21.0203 -15.1819 -71.6277 0.724794 19.7503 -0.126174 -56.939 4.90471 -4.99573 3.12361 9.21878 -17.4306 0.0 0.0 0.0 15.5498 -5.67227 18.172 -22.8064 0.251761 3.46771 38.1237 25.7218 -5.0069 7.56665 -0.0 -0.0 -0.0 0.0 -0.0 44.6806 6.52036 5.11174 -17.2461 -0.318257 -2.61746 -0.791854 20.4412 -0.132596 -1.90497 0.0 0.0 0.0 0.0 0.0 
1258.14142563 717.941 -1619.56581189 -20.1901779537 24.3742564918 1.43742416177 4.95494 0.223022 2.6545 4.95886 0.0537188 2.6633 4.95806 -0.279511 2.64915 4.9483 0.142227 2.66004 12.0047 9.37321 -3.10934 12.7268 17.9513 -4.08094 -0.0 0.0 -0.0 0.491724 19.2122 2.97587 -14.7594 -37.9924 61.5535 1.75799 -41.0475 0.658162 -36.4778 -2.5846 3.79639 -1.80548 2.46235 -11.0034 -0.0 0.0 -0.0 11.1063 13.345 -22.2225 -19.38 -15.0666 -71.9175 0.987628 26.0693 -0.228647 -57.7021 4.99844 -5.02391 2.9106 7.51228 -16.6914 0.0 0.0 0.0 15.7822 -5.43439 18.1766 -25.683 0.185065 3.90407 39.0048 25.8045 -5.09747 7.64893 -0.0 -0.0 -0.0 0.0 -0.0 42.8085 6.48581 5.04416 -19.0609 -0.305631 -2.89561 2.43226 22.3301 0.411164 -1.05166 0.0 0.0 0.0 0.0 0.0 
1246.48606077 716.564 -1641.91856104 -18.9406712671 23.7815170952 0.629111570112 4.84981 0.245464 2.81 4.8542 0.0662318 2.81991 4.85389 -0.291784 2.80557 4.84294 0.154784 2.81644 11.6858 9.8882 -2.57956 12.3988 18.3383 -3.38959 -0.0 0.0 -0.0 -0.590071 20.2827 1.50247 -14.6748 -36.408 63.311 1.7304 -40.5993 0.640124 -35.4774 -2.48353 3.71729 -1.88666 2.50547 -11.5324 -0.0 0.0 -0.0 10.9692 11.2265 -21.9577 -18.7837 -13.8502 -72.1193 1.22204 31.188 -0.341075 -57.9327 5.02683 -5.03218 2.47178 5.25046 -14.5955 0.0 0.0 0.0 15.9662 -5.24004 18.1727 -28.0964 0.112257 4.26727 38.89 26.1058 -5.09621 7.58562 -0.0 -0.0 -0.0 0.0 -0.0 40.8953 7.737 4.72561 -20.7449 -0.28604 -3.15325 5.96826 21.3076 0.986766 0.0255886 -0.0 -0.0 0.0 0.0 0.0 
